<svg width="512" height="512" viewBox="0 0 512 512" fill="none" xmlns="http://www.w3.org/2000/svg">
<rect width="512" height="512" fill="#2563EB"/>
<path d="M171.625 158.656L96.3125 366H65.5312L152.25 138.5H172.094L171.625 158.656ZM234.75 366L159.281 158.656L158.812 138.5H178.656L265.688 366H234.75ZM230.844 281.781V306.469H103.031V281.781H230.844ZM398.344 333.188V126H427.406V366H400.844L398.344 333.188ZM284.594 283.344V280.062C284.594 267.146 286.156 255.427 289.281 244.906C292.51 234.281 297.042 225.167 302.875 217.562C308.812 209.958 315.844 204.125 323.969 200.062C332.198 195.896 341.365 193.812 351.469 193.812C362.094 193.812 371.365 195.688 379.281 199.438C387.302 203.083 394.073 208.448 399.594 215.531C405.219 222.51 409.646 230.948 412.875 240.844C416.104 250.74 418.344 261.938 419.594 274.438V288.812C418.448 301.208 416.208 312.354 412.875 322.25C409.646 332.146 405.219 340.583 399.594 347.562C394.073 354.542 387.302 359.906 379.281 363.656C371.26 367.302 361.885 369.125 351.156 369.125C341.26 369.125 332.198 366.99 323.969 362.719C315.844 358.448 308.812 352.458 302.875 344.75C297.042 337.042 292.51 327.979 289.281 317.562C286.156 307.042 284.594 295.635 284.594 283.344ZM313.656 280.062V283.344C313.656 291.781 314.49 299.698 316.156 307.094C317.927 314.49 320.635 321 324.281 326.625C327.927 332.25 332.562 336.677 338.188 339.906C343.812 343.031 350.531 344.594 358.344 344.594C367.927 344.594 375.792 342.562 381.938 338.5C388.188 334.438 393.188 329.073 396.938 322.406C400.688 315.74 403.604 308.5 405.688 300.688V263.031C404.438 257.302 402.615 251.781 400.219 246.469C397.927 241.052 394.906 236.26 391.156 232.094C387.51 227.823 382.979 224.438 377.562 221.938C372.25 219.438 365.948 218.188 358.656 218.188C350.74 218.188 343.917 219.854 338.188 223.188C332.562 226.417 327.927 230.896 324.281 236.625C320.635 242.25 317.927 248.812 316.156 256.312C314.49 263.708 313.656 271.625 313.656 280.062Z" fill="white"/>
</svg>
